REM DIRINDEX 1\2\6,1\2\7,1\2\8,1\2\9,1\3\10,1\3\11,1\4\12,1\4\13,1\4\14,1\5\15,1\5\16,1\5\17
REM DIRNAME folder01,folder02,folder03,folder04,folder05,folder06,folder07,folder08,folder09,folder10,folder11,folder12,folder13,folder14,folder15,folder16,folder17
TITLE ""
FILE "1900_3_088 sec15_1450_1466.mp3" MP3
  TRACK 01 AUDIO
    TITLE "0:"
    INDEX 01 00:00:00
  TRACK 02 AUDIO
    TITLE "17:cjc020_8881"
    INDEX 01 00:00:13
  TRACK 03 AUDIO
    TITLE "0:"
    INDEX 01 00:01:11
  TRACK 04 AUDIO
    TITLE "16:cjc020_8882"
    INDEX 01 00:01:21
  TRACK 05 AUDIO
    TITLE "0:"
    INDEX 01 00:02:22
  TRACK 06 AUDIO
    TITLE "17:cjc020_8883"
    INDEX 01 00:03:06
  TRACK 07 AUDIO
    TITLE "0:"
    INDEX 01 00:04:19
  TRACK 08 AUDIO
    TITLE "16:cjc020_8884"
    INDEX 01 00:04:23
  TRACK 09 AUDIO
    TITLE "0:"
    INDEX 01 00:05:30
  TRACK 10 AUDIO
    TITLE "17:cjc020_8885"
    INDEX 01 00:06:12
  TRACK 11 AUDIO
    TITLE "0:"
    INDEX 01 00:07:29
  TRACK 12 AUDIO
    TITLE "16:cjc020_8886"
    INDEX 01 00:07:37
  TRACK 13 AUDIO
    TITLE "0:"
    INDEX 01 00:08:48
  TRACK 14 AUDIO
    TITLE "17:cjc020_8887"
    INDEX 01 00:09:32
  TRACK 15 AUDIO
    TITLE "0:"
    INDEX 01 00:10:45
  TRACK 16 AUDIO
    TITLE "16:cjc020_8888"
    INDEX 01 00:10:51
  TRACK 17 AUDIO
    TITLE "0:"
    INDEX 01 00:11:64
  TRACK 18 AUDIO
    TITLE "17:cjc020_8889"
    INDEX 01 00:12:44
  TRACK 19 AUDIO
    TITLE "0:"
    INDEX 01 00:13:51
  TRACK 20 AUDIO
    TITLE "16:cjc020_8890"
    INDEX 01 00:13:57
  TRACK 21 AUDIO
    TITLE "0:"
    INDEX 01 00:15:01
  TRACK 22 AUDIO
    TITLE "17:cjc020_8891"
    INDEX 01 00:15:60
  TRACK 23 AUDIO
    TITLE "0:"
    INDEX 01 00:18:60
  TRACK 24 AUDIO
    TITLE "16:cjc020_8892"
    INDEX 01 00:18:64
  TRACK 25 AUDIO
    TITLE "0:"
    INDEX 01 00:19:67
  TRACK 26 AUDIO
    TITLE "17:cjc020_8893"
    INDEX 01 00:20:47
  TRACK 27 AUDIO
    TITLE "0:"
    INDEX 01 00:22:44
  TRACK 28 AUDIO
    TITLE "16:cjc020_8894"
    INDEX 01 00:22:46
  TRACK 29 AUDIO
    TITLE "0:"
    INDEX 01 00:23:46
  TRACK 30 AUDIO
    TITLE "17:cjc020_8895"
    INDEX 01 00:24:31
  TRACK 31 AUDIO
    TITLE "0:"
    INDEX 01 00:25:27
  TRACK 32 AUDIO
    TITLE "16:cjc020_8896"
    INDEX 01 00:25:35
  TRACK 33 AUDIO
    TITLE "0:"
    INDEX 01 00:26:40
  TRACK 34 AUDIO
    TITLE "17:cjc020_8897"
    INDEX 01 00:27:18
  TRACK 35 AUDIO
    TITLE "0:"
    INDEX 01 00:28:33
  TRACK 36 AUDIO
    TITLE "16:cjc020_8898"
    INDEX 01 00:28:35
  TRACK 37 AUDIO
    TITLE "0:"
    INDEX 01 00:29:36
  TRACK 38 AUDIO
    TITLE "17:cjc020_8899"
    INDEX 01 00:30:20
  TRACK 39 AUDIO
    TITLE "0:"
    INDEX 01 00:31:31
  TRACK 40 AUDIO
    TITLE "16:cjc020_8900"
    INDEX 01 00:31:37
  TRACK 41 AUDIO
    TITLE "0:"
    INDEX 01 00:32:39
  TRACK 42 AUDIO
    TITLE "17:cjc020_8901"
    INDEX 01 00:33:26
  TRACK 43 AUDIO
    TITLE "0:"
    INDEX 01 00:34:22
  TRACK 44 AUDIO
    TITLE "16:cjc020_8902"
    INDEX 01 00:34:28
  TRACK 45 AUDIO
    TITLE "0:"
    INDEX 01 00:35:31
  TRACK 46 AUDIO
    TITLE "17:cjc020_8903"
    INDEX 01 00:36:15
  TRACK 47 AUDIO
    TITLE "0:"
    INDEX 01 00:37:26
  TRACK 48 AUDIO
    TITLE "16:cjc020_8904"
    INDEX 01 00:37:32
  TRACK 49 AUDIO
    TITLE "0:"
    INDEX 01 00:38:30
  TRACK 50 AUDIO
    TITLE "17:cjc020_8905"
    INDEX 01 00:39:13
  TRACK 51 AUDIO
    TITLE "0:"
    INDEX 01 00:40:03
  TRACK 52 AUDIO
    TITLE "16:cjc020_8906"
    INDEX 01 00:40:05
  TRACK 53 AUDIO
    TITLE "0:"
    INDEX 01 00:41:06
  TRACK 54 AUDIO
    TITLE "17:cjc020_8907"
    INDEX 01 00:41:65
  TRACK 55 AUDIO
    TITLE "0:"
    INDEX 01 00:42:74
  TRACK 56 AUDIO
    TITLE "16:cjc020_8908"
    INDEX 01 00:43:03
  TRACK 57 AUDIO
    TITLE "0:"
    INDEX 01 00:43:72
  TRACK 58 AUDIO
    TITLE "17:cjc020_8909"
    INDEX 01 00:44:60
  TRACK 59 AUDIO
    TITLE "0:"
    INDEX 01 00:45:47
  TRACK 60 AUDIO
    TITLE "16:cjc020_8910"
    INDEX 01 00:45:53
  TRACK 61 AUDIO
    TITLE "0:"
    INDEX 01 00:46:56
  TRACK 62 AUDIO
    TITLE "17:cjc020_8911"
    INDEX 01 00:47:36
  TRACK 63 AUDIO
    TITLE "0:"
    INDEX 01 00:48:36
  TRACK 64 AUDIO
    TITLE "16:cjc020_8912"
    INDEX 01 00:48:44
  TRACK 65 AUDIO
    TITLE "0:"
    INDEX 01 00:49:39
  TRACK 66 AUDIO
    TITLE "17:cjc020_8913"
    INDEX 01 00:50:23
  TRACK 67 AUDIO
    TITLE "0:"
    INDEX 01 00:52:67
  TRACK 68 AUDIO
    TITLE "16:cjc020_8914"
    INDEX 01 00:52:69
  TRACK 69 AUDIO
    TITLE "0:"
    INDEX 01 00:54:09
